<?xml version="1.0" encoding="UTF-8" standalone="no"?>
<!-- Created with Inkscape (http://www.inkscape.org/) -->

<svg
   version="1.1"
   id="svg1"
   width="1121.4952"
   height="1121.4952"
   viewBox="0 0 1121.4952 1121.4952"
   sodipodi:docname="CCSBH_fond_blanc.svg"
   inkscape:version="1.4.2 (f4327f4, 2025-05-13)"
   xmlns:inkscape="http://www.inkscape.org/namespaces/inkscape"
   xmlns:sodipodi="http://sodipodi.sourceforge.net/DTD/sodipodi-0.dtd"
   xmlns="http://www.w3.org/2000/svg"
   xmlns:svg="http://www.w3.org/2000/svg">
  <sodipodi:namedview
     id="namedview1"
     pagecolor="#ffffff"
     bordercolor="#000000"
     borderopacity="0.25"
     inkscape:showpageshadow="2"
     inkscape:pageopacity="0.0"
     inkscape:pagecheckerboard="0"
     inkscape:deskcolor="#d1d1d1"
     inkscape:zoom="0.35978753"
     inkscape:cx="1085.3628"
     inkscape:cy="582.28811"
     inkscape:window-width="1920"
     inkscape:window-height="1009"
     inkscape:window-x="1912"
     inkscape:window-y="-8"
     inkscape:window-maximized="1"
     inkscape:current-layer="g1" />
  <defs
     id="defs1" />
  <g
     id="g1">
    <path
       style="fill:#ff6304;fill-opacity:1"
       d="M 488.06578,922.13226 C 288.65838,911.1931 123.89768,805.65416 78.228578,659.60727 16.018678,460.66448 183.27178,272.87561 454.56578,237.06223 l 14.5,-1.91413 50.5,-0.008 50.5,-0.008 16.5,2.42074 c 63.057,9.2512 110.8163,22.08072 159.5,42.84632 94.6992,40.39311 171.8214,113.27997 204.9636,193.70753 23.9427,58.10286 28.4089,131.71327 9.9898,164.64966 -4.9778,8.90108 -6.4671,7.57521 -9.8415,-8.76161 l -1.5381,-7.44632 0.042,-32.97087 0.042,-32.97086 -2.0808,-14.51654 C 927.99308,405.00522 786.37328,291.54031 602.06578,265.21646 353.14668,229.66443 118.95368,356.31984 89.897078,542.20578 l -1.7823,11.40149 v 25 25 l 1.7901,11.5 c 18.655602,119.84688 118.482202,214.90842 275.660902,262.50261 7.2228,2.18709 36.91,9.25702 44,10.47846 3.575,0.6159 9.8362,1.79126 13.9137,2.61191 24.5772,4.94638 79.8059,8.96974 109.0863,7.94683 26.0267,-0.90925 74.0512,-5.6233 82,-8.04905 0.825,-0.25177 5.55,-1.15603 10.5,-2.00946 69.429,-11.97036 142.7643,-42.69417 206.424,-86.4813 22.2641,-15.31396 22.076,-15.04286 22.076,-31.81176 v -11.91107 l 9.75,3.94153 c 29.0421,11.74056 76.543,28.89622 114.5858,41.38437 11.4597,3.76184 20.45974,6.94429 20.00004,7.07213 -4.8102,1.33763 -52.99424,3.35314 -77.57044,3.24473 l -30.2654,-0.1335 -18.1928,-1.94421 -18.1929,-1.94421 -12.3071,9.80961 c -89.3706,71.23407 -221.6437,109.54021 -353.3072,102.31737 z m 24.863,-33.06312 c -35.9973,-7.12636 -65.0907,-72.07666 -66.9489,-149.46187 l -0.5283,-22 10.7534,11.5 c 19.5005,20.85432 37.7605,38.51045 44.3608,42.89391 l 6.5,4.31684 7.1727,-0.45023 c 5.0974,-0.31996 8.8588,-1.25746 13,-3.24012 l 5.8273,-2.78989 10.8978,-11.05903 c 26.9116,-27.30962 35.4058,-47.13945 30.5866,-71.40419 -1.5548,-7.82863 -1.4686,-7.76981 -13.4844,-9.20106 -11.1048,-1.32274 -41.3144,-6.38649 -50.2458,-8.42226 l -5.7542,-1.31156 11.642,-0.70053 c 18.2652,-1.09906 101.9415,0.66712 106.7062,2.25228 1.1142,0.37068 -5.3984,45.89632 -8.9575,62.61584 -14.357,67.44626 -50.427,135.98926 -80.9092,153.75 l -6.436,3.75 -5.0228,-0.10957 c -2.7625,-0.0603 -6.8844,-0.47811 -9.1597,-0.92856 z m 149.49,-24.71187 c -10.4045,-12.49769 -18.9243,-34.69787 -23.5059,-61.25 l -2.8471,-16.5 v -57.36396 -57.36396 l 7.5,0.62822 c 4.125,0.34551 10.4875,0.90002 14.139,1.23223 l 6.6389,0.60401 -0.3585,3.63173 c -3.6653,37.12389 2.5977,97.13173 10.1376,97.13173 9.5903,0 35.7594,-37.82087 52.9161,-76.47682 3.656,-8.23725 6.7889,-15.11856 6.9622,-15.29179 0.3063,-0.30639 26.9218,3.59518 29.2104,4.28197 1.9887,0.59681 -21.5314,75.49133 -28.5738,90.98664 -18.1027,39.83128 -36.7014,64.48466 -62.6989,83.11037 -6.8859,4.93335 -7.4745,5.09655 -9.52,2.63963 z m -323.9391,-17.39518 c -31.9547,-21.92476 -46.9107,-40.93822 -59.5006,-75.64287 -7.8883,-21.74443 -17.4133,-70.58187 -17.4133,-89.28301 v -3.83832 l 3.25,-0.53764 c 4.5337,-0.75001 25.1444,-2.49191 25.4826,-2.15366 0.1528,0.15275 1.8552,7.2129 3.7832,15.68921 3.9741,17.47233 7.5341,29.10307 11.0039,35.95036 l 2.3782,4.69316 9.1043,1.76838 c 11.0975,2.15552 18.237,1.59574 25.6013,-2.00728 l 5.3699,-2.62725 27.2633,-27.96809 c 14.9948,-15.38246 30.3749,-30.68896 34.1779,-34.01446 l 6.9147,-6.04637 0.7771,1.38866 c 2.9049,5.19085 7.8548,39.03508 7.8647,53.77436 0.037,55.05378 -25.548,106.01446 -66.8494,133.152 -9.0201,5.92675 -6.8421,6.18723 -19.2078,-2.29718 z m 705.08612,-5.99626 c -5.775,-0.47507 -11.5307,-1.10072 -12.7904,-1.39035 l -2.2904,-0.52659 5.8633,-7.22081 c 20.9255,-25.77058 21.4439,-27.01248 23.5287,-56.36516 l 1.1888,-16.73754 8.5334,10.11359 c 12.8047,15.17564 17.7717,22.83571 19.1891,29.59306 l 1.2134,5.78504 -1.7522,6.6951 c -4.1475,15.84691 -18.703,31.48767 -28.9016,31.05626 -1.8052,-0.0764 -8.0071,-0.52753 -13.7821,-1.0026 z M 793.79148,788.35727 c -4.8169,-23.58293 -10.8053,-100.25 -7.8304,-100.25 0.7591,0 22.4909,15.24351 28.9617,20.31475 l 3.857,3.02279 11.643,1.86512 c 6.4036,1.02583 14.0055,2.13784 16.893,2.47114 l 5.25,0.606 0.011,-4.3899 c 0.023,-9.55386 1.2672,-62.40655 1.4749,-62.66003 0.2356,-0.28741 8.4222,6.41306 25.5145,20.88272 l 10.5,8.88888 19.5,11.08628 c 44.3138,25.19361 61.8635,39.9367 75.9224,63.78067 1.7244,2.92462 2.7476,5.16316 2.2737,4.97453 -0.4739,-0.18862 -17.6083,-8.81081 -38.0765,-19.1604 -39.5301,-19.9881 -43.7462,-21.57786 -32.1628,-12.12755 33.8387,27.60743 59.1786,48.1283 61.5241,49.8239 l 1.981,1.43202 -5.481,-0.92763 c -97.1196,-16.43713 -153.8233,-41.61069 -178.4749,-79.23378 -2.0666,-3.15398 -3.9129,-3.50697 -2.9807,-0.56985 0.363,1.14381 5.369,12.18249 11.1245,24.5304 l 10.4644,22.45076 -2.1081,8.4146 c -2.8501,11.37676 -15.6664,40.52458 -17.8186,40.52458 -0.4331,0 -1.3159,-2.5875 -1.9618,-5.75 z m -592.2499,-34.57032 c -17.4602,-7.18378 -31.3428,-23.40499 -51.3721,-60.02598 -4.4056,-8.05508 -4.351,-8.34506 0.8995,-4.77856 14.6888,9.97764 35.6724,23.12486 36.9085,23.12486 0.8117,0 11.9636,-6.35032 24.782,-14.11182 12.8185,-7.76149 27.0874,-15.88957 31.7087,-18.0624 l 8.4024,-3.95058 0.8744,1.3124 c 2.7026,4.05628 -1.6404,39.25498 -6.1927,50.19013 -8.267,19.85831 -30.6179,32.63513 -46.0107,26.30195 z m 787.4765,-31.86239 c -36.7979,-21.39303 -68.2699,-37.48446 -90.7023,-46.37545 l -9.75,-3.86436 -0.082,-3.03874 c -0.045,-1.67131 -0.2404,-4.16374 -0.4335,-5.53874 -0.1932,-1.375 -0.8321,-11.725 -1.4198,-23 -0.5876,-11.275 -1.3369,-25.5625 -1.6651,-31.75 -0.3282,-6.1875 -0.9512,-11.25 -1.3845,-11.25 -1.8658,0 -43.3369,20.66051 -51.7225,25.76764 l -9.2076,5.60775 -1.9434,4.5623 c -2.8115,6.60048 -5.7102,16.86382 -8.6319,30.56231 -1.4076,6.6 -2.7427,12.52008 -2.9669,13.15573 -0.2766,0.78441 -4.0438,-0.0626 -11.7251,-2.63622 l -11.3175,-3.79197 0.1188,-26.86377 c 0.1,-22.6162 2.8266,-77.4073 5.9399,-119.36377 0.3469,-4.675 0.9884,-28.075 1.4255,-52 l 0.7949,-43.5 2.0801,-11.5 c 2.572,-14.21963 9.1745,-38.3836 10.1917,-37.30022 3.7696,4.01455 15.1738,28.23656 17.6395,37.46556 3.1232,11.68996 -0.4954,69.58379 -9.0644,145.02161 -0.2303,2.02782 -0.2317,3.87399 0,4.10261 0.4128,0.41287 8.2731,-1.665 40.8771,-10.80589 9.35,-2.62138 17.9687,-4.97169 19.1528,-5.2229 l 2.1528,-0.45677 0.6269,-13.652 c 1.7488,-38.08508 4.6349,-75.60292 6.1613,-80.0927 1.709,-5.02718 13.6899,23.75599 16.5569,39.77684 3.6404,20.34227 3.0525,37.5039 -3.1902,93.13485 -2.5233,22.48638 -2.6627,21.00977 2.3108,24.47653 54.3398,37.87679 83.2479,68.62623 99.31464,105.64038 5.47438,12.61173 6.42468,12.3558 -10.13364,2.72939 z m -232.7291,-59.27857 c -13.4053,-2.80992 -12.3679,-0.94482 -10.1683,-18.28085 2.2014,-17.34907 2.3512,-40.29904 0.3118,-47.75332 l -1.3667,-4.99545 -6,-0.86028 c -25.7585,-3.69326 -47.6964,8.53584 -72,40.13568 -3.85,5.00582 -7.6077,9.12714 -8.3505,9.1585 -0.7428,0.0314 -6.5339,-0.9189 -12.8691,-2.11166 l -11.5186,-2.16867 0.7145,-31.08133 c 1.1655,-50.70172 0.9502,-160.43124 -0.3446,-175.58134 -0.6346,-7.425 -1.3876,-16.425 -1.6733,-20 -0.6176,-7.72836 -0.6568,-55.41072 -0.049,-59 0.2331,-1.375 0.73,-6.47826 1.1042,-11.34057 l 0.6805,-8.84056 15.7228,-7.71749 c 19.3729,-9.50914 30.2504,-13.23492 39.0555,-13.3774 l 6.5271,-0.10561 8.1444,3.22279 c 29.9802,11.86329 52.7881,41.88383 60.9401,80.21142 l 1.7967,8.44742 0.01,17.5 0.01,17.5 -2.7965,11.97178 c -2.5365,10.85876 -11.1548,37.22942 -16.3847,50.13438 l -2.0693,5.10617 7.4043,8.14239 c 21.3786,23.50969 22.439,26.51775 22.4367,63.64528 0,29.093 -5.0531,90.62431 -7.4212,90.39883 -0.5843,-0.0556 -5.912,-1.11769 -11.8392,-2.36011 z m -78.5518,-134.82371 c 26.1457,-32.37787 43.4071,-59.09006 49.9434,-77.28827 l 2.1288,-5.92674 0.05,-10 0.05,-10 -1.9215,-4.90354 -1.9215,-4.90353 -4.7608,-3.27866 c -10.8363,-7.4627 -52.4831,-13.4181 -52.7701,-7.54599 -0.017,0.34744 -0.48,4.00672 -1.0289,8.13172 -4.5322,34.05769 -5.6652,129.09663 -1.5374,128.96501 0.6034,-0.0192 5.8993,-5.98174 11.7686,-13.25 z m -66.6714,103.20256 c -8.8074,-1.4923 -36.2823,-4.79877 -61.5,-7.40123 -13.475,-1.39062 -29.9,-3.18644 -36.5,-3.99072 -6.6,-0.80427 -18.075,-2.18123 -25.5,-3.05991 -16.8561,-1.99477 -42.1695,-6.23517 -43.1652,-7.23087 -1.1712,-1.17122 -6.7733,-24.42392 -8.0771,-33.52564 -1.5234,-10.63483 -1.4505,-65.14156 0.1092,-81.7092 4.0507,-43.02823 18.986,-82.65855 48.9867,-129.98478 33.7112,-53.17975 48.6572,-69.39653 81.3604,-88.27836 l 8.2498,-4.76314 2.2942,4.75372 c 14.0792,29.17246 24.264,89.05715 24.2361,142.50319 -0.01,16.6338 -5.9321,47.68855 -10.7322,56.26579 l -1.0062,1.79796 -18.7486,-37.14719 c -10.3118,-20.43096 -19.3014,-37.14719 -19.9769,-37.14719 -0.6755,0 -5.5552,4.8375 -10.8438,10.75 -63.6197,71.12588 -83.771,140.57819 -45.7401,157.64544 13.1551,5.90362 42.1557,9.30789 95.2816,11.18469 11.9894,0.42356 19.0406,1.06788 19.5971,1.79074 0.7486,0.9724 5.923,21.83395 10.5114,42.37913 l 1.3958,6.25 -2.6161,-0.11762 c -1.4389,-0.0647 -4.8661,-0.49885 -7.6161,-0.96481 z m -488.501,-13.14845 c 0,-1.94421 9.7004,-38.1185 14.0124,-52.26912 18.4237,-60.4604 52.5901,-146.95265 68.9316,-174.5 5.723,-9.64737 13.5074,-19.9675 15.057,-19.9617 18.1228,0.0679 27.5243,34.10271 27.4744,99.4617 l -0.021,27 -1.7561,11.5 c -3.1749,20.79056 -12.8276,53.47818 -14.7157,49.83289 -1.3566,-2.61895 -6.121,-24.16736 -13.028,-58.92263 -8.5247,-42.89581 -6.8187,-40.12632 -15.5644,-25.26603 -17.9076,30.42751 -30.0011,62.43641 -50.0986,132.59942 l -2.7909,9.74365 -3.5,0.11232 c -1.925,0.0618 -8.113,0.40213 -13.751,0.75635 -5.6381,0.35421 -10.2506,0.31513 -10.25,-0.0869 z m 147.009,-9.51912 c 0.014,-1.31015 6.7202,-38.14651 9.8764,-54.25 15.2146,-77.62688 34.5749,-145.7191 56.1542,-197.5 2.2921,-5.5 5.2892,-12.7 6.6603,-16 1.371,-3.3 6.2583,-13.65 10.8606,-23 l 8.3678,-17 8.7863,-10.5501 c 10.8185,-12.9901 9.8389,-12.70232 15.474,-4.54618 20.5378,29.72622 25.5286,55.00826 26.4954,134.21927 0.843,69.06576 -2.5507,99.49712 -14.4838,129.8765 l -1.918,4.88269 -1.1215,-3.44109 c -4.3107,-13.22541 -8.9316,-40.27571 -15.7061,-91.94109 -2.543,-19.39437 -8.5345,-47.31392 -10.401,-48.4675 -1.6172,-0.99946 -16.8116,27.29887 -23.0709,42.9675 -10.2674,25.70197 -19.285,57.47613 -28.3804,100 -1.8822,8.8 -5.3335,24.8875 -7.6694,35.75 l -4.2472,19.75 h -17.8424 c -9.8133,0 -17.8387,-0.3375 -17.8343,-0.75 z"
       id="path2" />
  </g>
</svg>
